<?xml version="1.0" encoding="utf-8"?>
<!-- Generator: Adobe Illustrator 26.0.0, SVG Export Plug-In . SVG Version: 6.00 Build 0)  -->
<svg version="1.1" id="Layer_1" xmlns="http://www.w3.org/2000/svg" xmlns:xlink="http://www.w3.org/1999/xlink" x="0px" y="0px"
	 viewBox="0 0 315.4 78.2" style="enable-background:new 0 0 315.4 78.2;" xml:space="preserve">
<style type="text/css">
	.st0{fill:#2B2B2B;}
	.st1{fill:#2a84ff;}
	.st2{fill:url(#SVGID_1_);}
	.st3{fill:url(#SVGID_00000090287601348358713770000016236741526618923139_);}
	.st4{fill:url(#SVGID_00000031906911241263658290000001623931863086098875_);}
	.st5{fill:url(#SVGID_00000061452667289843604540000004024555571173748875_);}
	.st6{fill:url(#SVGID_00000132048615664875174750000012579054544246395776_);}
	.st7{fill:url(#SVGID_00000031892989631756977450000011178935503099724989_);}
	.st8{fill:url(#SVGID_00000062912392373682782250000008968716770699497883_);}
	.st9{fill:url(#SVGID_00000163067361728340874380000011860306160336199342_);}
	.st10{fill:url(#SVGID_00000136370432928075874680000007492517206466332300_);}
	.st11{fill:url(#SVGID_00000108996524002648623450000009537019087988898221_);}
	.st12{fill:url(#SVGID_00000120533754611629502760000011763416137784405641_);}
	.st13{fill:url(#SVGID_00000183218334245306945080000003213858698000750976_);}
	.st14{fill:url(#SVGID_00000150096893325952376360000007435710984406111932_);}
	.st15{fill:url(#SVGID_00000039849954736785006940000000623148007577763005_);}
	.st16{fill:url(#SVGID_00000162341886769363640490000007716277855608351370_);}
	.st17{fill:#FFFFFF;}
	.st18{fill:url(#SVGID_00000010300576090313058430000002282827265457808296_);}
	.st19{fill:url(#SVGID_00000026848886158739796540000007577980955366459547_);}
	.st20{fill:url(#SVGID_00000000203185146528252620000010848099534294642858_);}
	.st21{fill:url(#SVGID_00000062161523460845547000000003307679539045927846_);}
	.st22{fill:url(#SVGID_00000050656134783345678440000012447339569724302730_);}
	.st23{fill:url(#SVGID_00000126281398267309439020000007359926351419651712_);}
	.st24{fill:url(#SVGID_00000078036080328486607890000002464014305464012933_);}
	.st25{fill:url(#SVGID_00000091007328447572928460000012307347542730638480_);}
	.st26{fill:url(#SVGID_00000139282385608439955010000013890276014795138994_);}
	.st27{fill:url(#SVGID_00000148626180173105640980000014356015144657306283_);}
	.st28{fill:url(#SVGID_00000170977843807305797320000002509501114941711792_);}
	.st29{fill:url(#SVGID_00000067213355516232684820000005855682266306722988_);}
	.st30{fill:url(#SVGID_00000129891067737838298910000009012493318404331427_);}
	.st31{fill:url(#SVGID_00000091728581946004835500000012601256055825201286_);}
	.st32{fill:url(#SVGID_00000060016094637349254600000008399400209643799737_);}
</style>
<g>
	<path class="st1" d="M125.3,58.4c-2.8,0-5.4,0-8.2,0c0-1.2,0-2.3,0-3.6c-0.2,0.2-0.4,0.3-0.5,0.4c-2.8,3.3-6.4,4.6-10.7,4.1
		c-5.7-0.6-10.2-3.3-13.3-8.2c-4.6-7.2-2.8-16.9,4.1-22c4.3-3.2,9-4.4,14.2-3.3c2,0.4,3.7,1.4,5.4,2.8c0-4.4,0-8.6,0-12.9
		c3,0,5.9,0,8.9,0C125.3,30,125.3,44.2,125.3,58.4z M99,42.4c0,4.9,4,8.9,8.9,8.9c4.9,0,8.8-4,8.9-8.9c0-4.9-4-8.9-8.9-8.9
		C103,33.5,99,37.5,99,42.4z"/>
	<path class="st1" d="M199.2,55.9c0,4.5,0,8.8,0,13.2c-3,0-5.9,0-8.9,0c0-0.3,0-0.6,0-0.9c0-8.5,0-17,0-25.4c0-8.7,6.3-15.9,14.9-17
		c7.8-1.1,15.2,2.7,18.6,9.4c3.6,7.1,1.5,15.9-5,20.7c-3.9,2.9-8.3,4.2-13.1,3.5C203.3,58.8,201.2,57.7,199.2,55.9z M216.6,42.5
		c0-4.9-4-8.9-8.9-8.9c-4.9,0-8.9,4-8.9,8.8c0,4.9,3.9,8.9,8.9,9C212.6,51.4,216.6,47.4,216.6,42.5z"/>
	<path class="st1" d="M168.7,25.5c7.4,0,14,4.4,16.5,10.9c2.9,7.5,0.2,15.8-6.7,20.2c-7.4,4.7-17,3.5-23-2.8
		c-6.8-7.1-5.8-18.7,2.2-24.6C160.9,26.7,164.6,25.5,168.7,25.5z M159.9,42.4c0,4.9,4,8.9,8.8,8.9c4.8-0.1,8.7-4,8.8-8.9
		c0-4.9-4-8.9-8.8-8.9C163.8,33.5,159.8,37.5,159.9,42.4z"/>
	<path class="st1" d="M271,69.1c1.5-3.3,2.9-6.4,4.3-9.5c0.6-1.4,1.2-2.8,1.9-4.1c0.3-0.6,0.3-1.1,0-1.8
		c-4.1-8.8-8.2-17.5-12.3-26.3c-0.2-0.3-0.3-0.6-0.5-1.1c0.5,0,0.9,0,1.2,0c2.5,0,4.9,0,7.4,0c0.7,0,1.1,0.2,1.4,0.9
		c2.4,5.5,4.9,10.9,7.4,16.4c0.1,0.3,0.3,0.6,0.5,1.1c0.2-0.4,0.4-0.7,0.5-1c2.5-5.5,5-11,7.5-16.6c0.3-0.6,0.5-0.8,1.2-0.8
		c2.9,0,5.8,0,8.8,0c-0.1,0.3-0.2,0.6-0.3,0.8c-6.3,13.7-12.5,27.5-18.8,41.2c-0.3,0.6-0.5,0.7-1.1,0.7
		C277.1,69.1,274.1,69.1,271,69.1z"/>
	<path class="st1" d="M256.8,58.4c-3,0-5.9,0-8.9,0c0-8.1,0-16.2,0-24.4c-1.2,0-2.4,0-3.6,0c0-2.6,0-5,0-7.6c1.1,0,2.3,0,3.5,0
		c0.2-4.1,1.8-7.3,5.1-9.7c3-2.1,6.3-2.2,9.8-2c0,2.3,0,4.6,0,7c-2.8,0.4-5.4,1.1-6.1,4.6c2.1,0,4,0,6.1,0c0,2.6,0,5,0,7.6
		c-2,0-3.9,0-6,0C256.8,42.2,256.8,50.3,256.8,58.4z"/>
	<path class="st1" d="M140,58.4c-3,0-5.9,0-8.8,0c0-0.2-0.1-0.4-0.1-0.5c0-5.5-0.1-10.9,0-16.4c0.1-7.7,5.4-14,12.9-15.6
		c1.5-0.3,3.2-0.4,4.8-0.5c0,2.8,0,5.5,0,8.1c-0.8,0.2-1.7,0.2-2.5,0.5c-3.7,1.1-6.3,4.5-6.3,8.3c0,5,0,10.1,0,15.1
		C140,57.7,140,58,140,58.4z"/>
	<path class="st1" d="M239.1,58.4c-2.9,0-5.8,0-8.8,0c0-10.6,0-21.3,0-32c2.9,0,5.8,0,8.8,0C239.1,37.1,239.1,47.7,239.1,58.4z"/>
	<linearGradient id="SVGID_1_" gradientUnits="userSpaceOnUse" x1="229.5755" y1="18.071" x2="239.7535" y2="18.071">
		<stop  offset="0" style="stop-color:#FFBF1E"/>
		<stop  offset="1" style="stop-color:#FF9138"/>
	</linearGradient>
	<path class="st2" d="M234.7,23.2c-2.9,0-5.1-2.2-5.1-5.1c0-2.9,2.3-5.1,5.1-5.1c2.8,0,5.1,2.3,5.1,5.1
		C239.8,20.9,237.5,23.2,234.7,23.2z"/>
	<g>
		<g>
			<path class="st1" d="M294.9,69.6c-2.6,0-4.7-2.1-4.7-4.7s2.1-4.7,4.7-4.7c2.6,0,4.7,2.1,4.7,4.7S297.4,69.6,294.9,69.6z
				 M294.9,61.1c-2.1,0-3.7,1.7-3.7,3.7s1.7,3.7,3.7,3.7c2.1,0,3.7-1.7,3.7-3.7S296.9,61.1,294.9,61.1z"/>
		</g>
		<g>
			<path class="st1" d="M294.6,64.5c0.3,0,0.5-0.1,0.6-0.2c0.1-0.1,0.2-0.3,0.2-0.5c0-0.2-0.1-0.4-0.2-0.5c-0.1-0.1-0.3-0.1-0.6-0.1
				h-0.5v1.3H294.6 M294.1,65.4v1.9h-1.3v-4.9h1.9c0.6,0,1.1,0.1,1.4,0.3c0.3,0.2,0.5,0.6,0.5,1c0,0.3-0.1,0.6-0.2,0.8
				c-0.2,0.2-0.4,0.4-0.7,0.5c0.2,0,0.3,0.1,0.5,0.3c0.1,0.1,0.3,0.3,0.4,0.6l0.7,1.4h-1.4l-0.6-1.2c-0.1-0.2-0.2-0.4-0.4-0.5
				c-0.1-0.1-0.3-0.1-0.5-0.1H294.1"/>
		</g>
	</g>
	<g>
		<path class="st1" d="M69.5,27.3c0-1.3-0.7-2.4-1.9-2.8c-0.5-0.2-1-0.3-1.5-0.3c-2.7-0.2-5.4-0.4-8.1-0.6
			c-9.2-0.6-18.4-1.3-27.7-1.9c-0.3,0-0.5-0.1-0.6-0.4c-0.6-1.6-1.3-3.2-1.9-4.8c-0.7-1.7-1.9-2.6-3.8-2.7c-2-0.1-4-0.3-6-0.4
			c-0.4,0-0.8,0-1.2,0.2c-1.2,0.4-1.9,1.8-1.8,3.1c0.2,1.4,1.1,2.3,2.5,2.4c1.5,0.1,3.1,0.2,4.6,0.3c0.3,0,0.5,0.1,0.6,0.4
			c1.7,4.7,3.5,9.4,5.3,14c0.9,2.5,1.9,4.9,2.8,7.4c0.1,0.4,0.5,0.7,0.8,0.9c0.9,0.4,2.8,1.2,4.9,1.7c4.1,1,8.2,1.5,12.4,1.8
			c5.8,0.3,11.5,0,17.8-1.2c1-0.2,1.7-1,1.8-2c0,0,0,0,0,0c0.3-4.9,0.7-9.7,1-14.6C69.5,27.6,69.5,27.4,69.5,27.3z M33.7,31.7
			c-0.6-1.7-1.3-3.5-1.9-5.2c0-0.1,0-0.1,0-0.2c0.1,0,0.2,0,0.3,0c2.7,0.2,5.5,0.4,8.2,0.6c0.2,0,0.3,0,0.4,0.3
			c0.4,1.7,0.8,3.4,1.3,5.1c0,0.1,0,0.1,0,0.2c-0.1,0-0.3,0-0.4,0c-2.5-0.2-4.9-0.3-7.4-0.5C33.9,31.9,33.8,31.9,33.7,31.7z
			 M41.5,42.1c-1.2,0-2.3,0.1-3.5,0.1c-0.2,0-0.4,0-0.5-0.3c-0.8-2.3-1.7-4.5-2.6-6.8c0-0.1-0.1-0.2-0.1-0.3c0.1,0,0.3,0,0.4,0
			c2.3,0.2,4.6,0.3,6.8,0.5c0.3,0,0.4,0.1,0.5,0.4c0.5,2,1,4,1.5,6c0,0.1,0,0.2,0.1,0.3C43.1,42.1,42.3,42.1,41.5,42.1z M44.6,32.4
			c-0.4-1.7-0.8-3.4-1.2-5.2c0,0,0-0.1,0-0.2c1.2,0.1,2.3,0.2,3.4,0.2c1.5,0.1,3.1,0.2,4.6,0.3c0.2,0,0.4,0.1,0.4,0.3
			c0.3,1.6,0.5,3.3,0.8,4.9c0,0.1,0,0.2,0,0.3c-0.1,0-0.2,0-0.3,0c-2.4-0.2-4.9-0.3-7.3-0.5C44.9,32.7,44.7,32.7,44.6,32.4z
			 M46.9,41.9c-0.5-2.1-1-4.2-1.6-6.3c0.4,0,0.8,0.1,1.1,0.1c2,0.1,4.1,0.3,6.1,0.4c0.3,0,0.4,0.1,0.5,0.4c0.3,1.7,0.7,3.3,1.1,5
			c0,0.1,0,0.1,0,0.3C51.7,41.8,49.3,41.9,46.9,41.9z M64.1,41.3c-0.4,0-0.9,0-1.3,0c-1.9,0.1-3.7,0.1-5.6,0.2
			c-0.3,0-0.3-0.1-0.4-0.3c-0.3-1.5-0.5-3-0.8-4.5c0-0.1,0-0.2,0-0.3c2.8,0.2,5.6,0.4,8.5,0.6C64.3,38.4,64.2,39.8,64.1,41.3z
			 M64.6,34c-0.1,0-0.2,0-0.3,0c-2.8-0.2-5.7-0.4-8.5-0.6c-0.2,0-0.3-0.1-0.4-0.3c-0.2-1.7-0.5-3.4-0.8-5.2
			c3.4,0.2,6.9,0.5,10.4,0.7C64.9,30.4,64.8,32.2,64.6,34z"/>
	</g>
	<g>
		
			<linearGradient id="SVGID_00000048466588302817003640000017493755439567713942_" gradientUnits="userSpaceOnUse" x1="-11.488" y1="-92.1121" x2="-2.1071" y2="-92.1121" gradientTransform="matrix(0.9892 -0.1463 0.1463 0.9892 63.2146 98.7119)">
			<stop  offset="0" style="stop-color:#FFBF1E"/>
			<stop  offset="1" style="stop-color:#FF9138"/>
		</linearGradient>
		<path style="fill:url(#SVGID_00000048466588302817003640000017493755439567713942_);" d="M44,13.2c-0.3-0.8-0.6-1.5-0.9-2.2
			c-0.5-1-1.2-1.5-2.3-1.5c-0.8,0-1.6,0-2.3,0C39,9.3,39.7,9,40.3,8.8c1.2-0.5,1.8-1.4,1.8-2.7c0-0.7,0-1.3,0-2.1
			c0.1,0.3,0.2,0.5,0.3,0.8c0.2,0.5,0.5,1.1,0.7,1.6c0.4,0.8,1.1,1.2,2,1.3c0.9,0.1,1.7,0.1,2.5,0.1c-0.5,0.2-1,0.4-1.5,0.6
			c-0.3,0.1-0.6,0.3-0.9,0.5c-0.7,0.4-1.1,1-1.2,1.8c-0.1,0.8,0,1.6-0.1,2.3C44,13,44,13.1,44,13.2z"/>
		
			<linearGradient id="SVGID_00000178187577861687244910000005763643319504488090_" gradientUnits="userSpaceOnUse" x1="0.1602" y1="-81.9807" x2="9.3068" y2="-81.9807" gradientTransform="matrix(0.9892 -0.1463 0.1463 0.9892 63.2146 98.7119)">
			<stop  offset="0" style="stop-color:#FFBF1E"/>
			<stop  offset="1" style="stop-color:#FF9138"/>
		</linearGradient>
		<path style="fill:url(#SVGID_00000178187577861687244910000005763643319504488090_);" d="M60.6,17.3c-0.7,0.1-1.4,0.1-2.1,0.2
			c-1.2,0.1-2,0.8-2.4,2c-0.2,0.5-0.3,1.1-0.5,1.6c0,0.1-0.1,0.2-0.1,0.3c0-0.4,0-0.9-0.1-1.3c0-0.4-0.1-0.7-0.2-1.1
			c-0.2-0.9-0.7-1.6-1.5-1.9c-0.7-0.3-1.4-0.4-2.1-0.6c-0.1,0-0.2-0.1-0.4-0.1c0.7-0.1,1.3-0.1,1.9-0.2c1.4-0.1,2.4-0.8,2.8-2.2
			c0.2-0.6,0.3-1.2,0.5-1.7c0,0.5,0.1,1,0.1,1.5c0,0.3,0.1,0.6,0.1,0.9c0.2,0.9,0.7,1.5,1.5,1.8c0.7,0.3,1.4,0.4,2.1,0.6
			C60.3,17.2,60.4,17.3,60.6,17.3z"/>
		
			<linearGradient id="SVGID_00000143588199659831238440000007102981216373297814_" gradientUnits="userSpaceOnUse" x1="2.1886" y1="-89.8224" x2="7.5324" y2="-89.8224" gradientTransform="matrix(0.9892 -0.1463 0.1463 0.9892 63.2146 98.7119)">
			<stop  offset="0" style="stop-color:#FFBF1E"/>
			<stop  offset="1" style="stop-color:#FF9138"/>
		</linearGradient>
		<path style="fill:url(#SVGID_00000143588199659831238440000007102981216373297814_);" d="M54.5,11.8c0.2-1.8-0.6-2.8-2.4-3
			C54,9,55,8.2,55.2,6.4c0,0.4,0.1,0.8,0.1,1.2c0.1,0.8,0.5,1.3,1.2,1.5c0.3,0.1,0.7,0.2,1.1,0.3C55.3,9.6,55.1,9.9,54.5,11.8z"/>
		
			<linearGradient id="SVGID_00000133499396965461054240000011425748840291086002_" gradientUnits="userSpaceOnUse" x1="-3.6442" y1="-86.8547" x2="-9.966601e-02" y2="-86.8547" gradientTransform="matrix(0.9892 -0.1463 0.1463 0.9892 63.2146 98.7119)">
			<stop  offset="0" style="stop-color:#FFBF1E"/>
			<stop  offset="1" style="stop-color:#FF9138"/>
		</linearGradient>
		<path style="fill:url(#SVGID_00000133499396965461054240000011425748840291086002_);" d="M47.2,11.5c1.2,0.9,1.4,1.2,3.1,0.2
			c-0.9,0.9-1.1,1.8-0.3,2.9c-1-1-1.9-1-2.9-0.1C48.1,13.5,48.1,12.5,47.2,11.5z"/>
		
			<linearGradient id="SVGID_00000112599772805337430650000000138739933253938823_" gradientUnits="userSpaceOnUse" x1="-15.0814" y1="-82.9209" x2="-11.2802" y2="-82.9209" gradientTransform="matrix(0.9892 -0.1463 0.1463 0.9892 63.2146 98.7119)">
			<stop  offset="0" style="stop-color:#FFBF1E"/>
			<stop  offset="1" style="stop-color:#FF9138"/>
		</linearGradient>
		<path style="fill:url(#SVGID_00000112599772805337430650000000138739933253938823_);" d="M36.1,18.5c1.3,0,1.9-0.6,2-1.8
			c0,1.3,0.6,1.9,1.8,2c-1.3,0-1.9,0.6-2,1.9C38,19.3,37.4,18.6,36.1,18.5z"/>
	</g>
	
		<linearGradient id="SVGID_00000095328522544630207150000008146039146536157593_" gradientUnits="userSpaceOnUse" x1="71.8063" y1="39.9162" x2="77.1384" y2="39.9162">
		<stop  offset="0" style="stop-color:#FFBF1E"/>
		<stop  offset="1" style="stop-color:#FF9138"/>
	</linearGradient>
	<path style="fill:url(#SVGID_00000095328522544630207150000008146039146536157593_);" d="M77.1,40.5c-0.4,0-0.8,0-1.2-0.1
		c-0.7,0-1.2,0.3-1.6,1c-0.1,0.3-0.3,0.6-0.4,0.9c0,0.1-0.1,0.1-0.1,0.2c0-0.3,0-0.5,0.1-0.8c0-0.2,0-0.4,0-0.6c0-0.5-0.3-1-0.7-1.2
		c-0.4-0.2-0.8-0.4-1.1-0.5c-0.1,0-0.1-0.1-0.2-0.1c0.4,0,0.7,0,1.1,0.1c0.8,0.1,1.4-0.3,1.8-1c0.1-0.3,0.3-0.6,0.5-1
		c0,0.3,0,0.6-0.1,0.8c0,0.2,0,0.4,0,0.5c0,0.5,0.3,0.9,0.7,1.2c0.4,0.2,0.8,0.4,1.1,0.5C77,40.5,77,40.5,77.1,40.5z"/>
	
		<linearGradient id="SVGID_00000052799072077251291310000003025305891607283358_" gradientUnits="userSpaceOnUse" x1="21.5354" y1="51.0632" x2="28.8619" y2="51.0632">
		<stop  offset="0" style="stop-color:#FFBF1E"/>
		<stop  offset="1" style="stop-color:#FF9138"/>
	</linearGradient>
	<path style="fill:url(#SVGID_00000052799072077251291310000003025305891607283358_);" d="M28.9,51.9c-0.6,0-1.1-0.1-1.7-0.1
		c-1,0-1.7,0.4-2.2,1.3c-0.2,0.4-0.4,0.8-0.5,1.2c0,0.1-0.1,0.2-0.1,0.2c0-0.3,0.1-0.7,0.1-1c0-0.3,0-0.6,0-0.9c0-0.7-0.4-1.3-1-1.7
		c-0.5-0.3-1-0.5-1.6-0.7c-0.1,0-0.2-0.1-0.3-0.1c0.5,0,1,0.1,1.5,0.1c1.1,0.1,2-0.4,2.4-1.4c0.2-0.4,0.4-0.9,0.6-1.3
		c0,0.4-0.1,0.8-0.1,1.2c0,0.2,0,0.5,0,0.7c0,0.7,0.4,1.3,1,1.6c0.5,0.3,1,0.5,1.6,0.8C28.7,51.8,28.7,51.9,28.9,51.9z"/>
	
		<linearGradient id="SVGID_00000114038516358870387850000003061487592346003629_" gradientUnits="userSpaceOnUse" x1="193.2979" y1="-252.6546" x2="197.0945" y2="-252.6546" gradientTransform="matrix(0.8802 -0.4746 0.4746 0.8802 25.333 379.5953)">
		<stop  offset="0" style="stop-color:#FFBF1E"/>
		<stop  offset="1" style="stop-color:#FF9138"/>
	</linearGradient>
	<path style="fill:url(#SVGID_00000114038516358870387850000003061487592346003629_);" d="M79.1,64.1c-0.3,0.1-0.5,0.3-0.8,0.4
		c-0.5,0.2-0.7,0.6-0.7,1.1c0,0.2,0,0.5,0,0.7c0,0,0,0.1,0,0.1c-0.1-0.2-0.1-0.3-0.2-0.5c-0.1-0.1-0.1-0.3-0.2-0.4
		c-0.2-0.3-0.5-0.5-0.9-0.5c-0.3,0-0.6,0-0.9,0c0,0-0.1,0-0.2,0c0.3-0.1,0.5-0.2,0.7-0.3c0.5-0.2,0.8-0.6,0.8-1.2c0-0.3,0-0.5,0-0.8
		c0.1,0.2,0.2,0.4,0.3,0.6c0.1,0.1,0.1,0.2,0.2,0.3c0.2,0.3,0.5,0.5,0.8,0.5c0.3,0,0.6,0,0.9,0C79,64.1,79,64.1,79.1,64.1z"/>
	
		<linearGradient id="SVGID_00000015330192299999976680000012063969707285523840_" gradientUnits="userSpaceOnUse" x1="895.1948" y1="-715.321" x2="899.2242" y2="-715.321" gradientTransform="matrix(4.778117e-02 -0.9989 0.9989 4.778117e-02 740.1186 982.5026)">
		<stop  offset="0" style="stop-color:#FFBF1E"/>
		<stop  offset="1" style="stop-color:#FF9138"/>
	</linearGradient>
	<path style="fill:url(#SVGID_00000015330192299999976680000012063969707285523840_);" d="M69.1,50.1c0,0.3-0.1,0.6-0.1,0.9
		c0,0.5,0.2,1,0.7,1.2c0.2,0.1,0.4,0.2,0.7,0.3c0,0,0.1,0,0.1,0.1c-0.2,0-0.4-0.1-0.6-0.1c-0.2,0-0.3,0-0.5,0c-0.4,0-0.7,0.2-1,0.5
		c-0.2,0.3-0.3,0.6-0.5,0.8c0,0,0,0.1-0.1,0.2c0-0.3,0.1-0.6,0.1-0.8c0.1-0.6-0.1-1.1-0.7-1.4c-0.2-0.1-0.5-0.2-0.7-0.4
		c0.2,0,0.4,0.1,0.6,0.1c0.1,0,0.3,0,0.4,0c0.4,0,0.7-0.2,0.9-0.5c0.2-0.3,0.3-0.6,0.5-0.8C69,50.3,69,50.2,69.1,50.1z"/>
	<g>
		
			<linearGradient id="SVGID_00000167369647277033421180000013543243859556584065_" gradientUnits="userSpaceOnUse" x1="16.1564" y1="52.4274" x2="85.0388" y2="52.4274">
			<stop  offset="0" style="stop-color:#FFBF1E"/>
			<stop  offset="1" style="stop-color:#FF9138"/>
		</linearGradient>
		<path style="fill:url(#SVGID_00000167369647277033421180000013543243859556584065_);" d="M73.5,34c0.1,0,0.3,0.1,0.4,0.1
			c1.9,0.3,3.8,0.7,5.6,1.3c1.1,0.4,2.2,0.8,3.2,1.4c0.5,0.3,1,0.6,1.4,1c0.4,0.4,0.7,0.9,0.9,1.4c0.1,0.5,0,1-0.2,1.5
			c-0.4,0.7-0.9,1.2-1.5,1.7c-0.8,0.7-1.7,1.2-2.7,1.8c-1.1,0.6-2.2,1-3.4,1.4c-1.1,0.4-2.2,0.7-3.4,1c-0.3,0.1-0.6,0.2-0.9,0.3
			c0,0-0.1,0-0.1,0.1c0.1,0,0.2,0.1,0.2,0.1c0.8,0.4,1.6,0.8,2.4,1.2c0.5,0.3,1,0.7,1.5,1.1c0.5,0.6,0.9,1.3,1,2.1
			c0.1,0.7,0,1.3-0.2,2c-0.2,0.4-0.5,0.8-0.8,1.1c-0.8,0.8-1.8,1.4-2.8,2c-0.1,0-0.1,0.1-0.2,0.1c0.1,0,0.1,0,0.2,0.1
			c0.6,0.2,4.5,1.8,1,5.2c-1,0.9-2.1,1.6-3.2,2.3c-0.4,0.2-0.8,0.5-1.2,0.7c0,0,0,0-0.1,0.1c0.1,0,0.2,0.1,0.3,0.1
			c0.5,0.1,0.9,0.3,1.4,0.5c0.3,0.2,0.6,0.4,0.9,0.6c0.3,0.4,0.4,0.9,0.1,1.3c-0.2,0.3-0.5,0.6-0.8,0.8c-0.7,0.4-1.4,0.7-2.1,1
			c-3.7,1.4-8.9,1.7-9,1.7c0,0,12.6-2.7,10.6-4.3c-0.6-0.4-1.2-0.6-1.9-0.7c-0.4-0.1-0.9-0.1-1.3,0c-0.2,0-0.4,0.1-0.6,0.1
			c-1.2,0.5-2.5,0.8-3.8,1.1c-0.9,0.2-1.8,0.3-2.7,0.5c-0.4,0.1-0.9,0.1-1.3,0.2c-0.4,0.1-0.8,0.1-1.2,0.1c-0.3,0-0.6,0.1-0.9,0.1
			c-0.4,0-0.8,0.1-1.2,0.1c-0.3,0-0.7,0-1,0c-0.9,0-1.8,0-2.7,0c-0.5,0-1,0-1.6,0c-0.5,0-1-0.1-1.5-0.1c-0.3,0-0.7-0.1-1-0.1
			c-0.3,0-0.6-0.1-1-0.1c-0.3,0-0.7-0.1-1-0.1c-0.4,0-0.8-0.1-1.2-0.2c-0.6-0.1-1.2-0.2-1.7-0.3c-1-0.2-2-0.4-2.9-0.7
			c-0.6-0.2-1.1-0.4-1.7-0.6c-0.4-0.2-0.8-0.4-1.2-0.7c-0.3-0.3-0.4-0.6-0.3-1c0.1-0.2,0.2-0.4,0.4-0.5c0.4-0.3,0.8-0.4,1.2-0.5
			c0.5-0.1,1.1-0.2,1.6-0.2c0.5-0.1,1-0.1,1.5-0.1c0.3,0,0.7,0,1,0c1.1,0,2.2,0,3.3,0c0.3,0,0.6,0,0.9,0.1c0.2,0,0.3,0,0.5,0
			c0.6,0,1.2,0,1.8,0c0.7,0.1,1.5,0.1,2.2,0.1c0.3,0,0.6,0.1,0.9,0.1c0.5,0,1.1,0,1.6,0.1c0.4,0,0.7,0,1.1,0c0.5,0,1,0.1,1.6,0.1
			c0.4,0,0.8,0.1,1.1,0.1c0.5,0,1,0.1,1.4,0.1c0.4,0,0.8,0.1,1.3,0.1c0.5,0.1,1,0.1,1.5,0.2c0.4,0,0.8,0.1,1.2,0.1
			c0.4,0.1,0.8,0.1,1.2,0.2c0.5,0.1,0.9,0.1,1.4,0.2c0.3,0,0.6,0.1,0.9,0.1c0.3,0.1,0.6,0,0.9-0.1c1.1-0.6,2.1-1.2,3.2-1.8
			c0.8-0.5,1.6-1,2.3-1.6c0.4-0.3,0.7-0.6,1-1c0.1-0.2,0.2-0.4,0.3-0.6c0-0.2,0-0.4-0.2-0.6c-0.2-0.2-0.5-0.3-0.7-0.4
			c-0.5-0.2-0.9-0.3-1.4-0.3c-0.3,0-0.7-0.1-1-0.1c-0.5,0-1,0.1-1.5,0.2c-1.4,0.5-2.9,0.9-4.3,1.2c-1.1,0.2-2.3,0.4-3.4,0.6
			C62,59.9,61.4,60,60.8,60c-0.4,0.1-0.9,0.1-1.3,0.1c-0.5,0-1,0.1-1.6,0.1c-0.4,0-0.7,0.1-1.1,0.1c-0.4,0-0.9,0-1.3,0.1
			c-0.3,0-0.7,0-1,0c-0.7,0-1.3,0-2,0c-0.4,0-0.8,0-1.2,0c-0.3,0-0.6,0-0.9,0c-0.5,0-0.9,0-1.4-0.1c-0.5,0-1.1-0.1-1.6-0.1
			c-0.4,0-0.9-0.1-1.3-0.1c-0.4,0-0.8-0.1-1.3-0.1c-0.3,0-0.7-0.1-1-0.1c-0.4,0-0.8-0.1-1.2-0.2c-0.6-0.1-1.2-0.2-1.8-0.3
			c-0.8-0.1-1.5-0.3-2.3-0.5c-1.4-0.3-2.8-0.7-4.2-1.2c-0.6-0.2-1.3-0.5-1.9-0.8c-0.3-0.2-0.6-0.4-0.8-0.6c-0.3-0.3-0.4-0.6-0.4-0.9
			c0-0.2,0-0.4,0.2-0.6c0.2-0.2,0.4-0.4,0.6-0.5c0.5-0.2,1-0.4,1.5-0.5c0.5-0.1,0.9-0.1,1.4-0.2c0.5-0.1,1-0.1,1.5-0.1
			c0.2,0,0.3,0,0.5,0c0.6,0,1.2,0,1.9-0.1c0.4,0,0.9,0,1.3,0c0.4,0,0.8,0,1.2,0c0.7,0,1.4,0,2,0.1c0.3,0,0.7,0.1,1,0.1
			c0,0,0.1,0,0.1,0c0.5,0,1,0,1.5,0c0.5,0,1.1,0,1.6,0.1c0.6,0.1,1.2,0.1,1.9,0.1c0.5,0,1,0,1.5,0.1c0.1,0,0.2,0,0.4,0
			c0.4,0,0.8,0,1.2,0.1c0.5,0,0.9,0,1.4,0.1c0.5,0,1,0.1,1.5,0.1c0.3,0,0.6,0,0.9,0.1c0.4,0,0.8,0.1,1.1,0.1c0.4,0,0.7,0.1,1.1,0.1
			c0.4,0,0.8,0.1,1.2,0.1c0.3,0,0.6,0.1,0.9,0.1c0.3,0,0.7,0.1,1,0.1c0.3,0,0.6,0.1,1,0.1c0.4,0.1,0.9,0.1,1.3,0.2
			c0.4,0.1,0.8,0.1,1.2,0.2c0.5,0.1,1,0.1,1.5,0.2c0.5,0.1,1,0.2,1.6,0.2c0.6,0.1,1.2,0.2,1.8,0.3c0.2,0,0.4,0.1,0.7,0.1
			c0.2,0,0.4,0,0.6-0.1c0.8-0.4,1.5-0.8,2.3-1.2c0.6-0.4,1.2-0.8,1.7-1.4c0.1-0.1,0.3-0.3,0.4-0.4c0.5-0.5,0.5-1,0.2-1.6
			c-0.1-0.2-0.2-0.3-0.3-0.5c-0.6-0.6-1.2-1.1-1.9-1.5c-0.9-0.5-1.9-0.9-2.8-1.2c-0.2-0.1-0.4-0.2-0.7-0.2c-0.3-0.1-0.7-0.1-1-0.1
			c-0.7,0.1-1.4,0.2-2,0.4c-0.5,0.1-1.1,0.2-1.6,0.2c-0.5,0.1-1,0.1-1.5,0.2c-0.4,0-0.8,0.1-1.2,0.1c-0.3,0-0.6,0.1-0.9,0.1
			c-0.4,0-0.8,0.1-1.2,0.1c-0.3,0-0.5,0-0.8,0.1c-0.4,0-0.9,0.1-1.3,0.1c-0.5,0-1,0-1.4,0.1c-0.8,0-1.7,0-2.5,0c-0.4,0-0.8,0-1.2,0
			c-0.4,0-0.7,0-1.1,0c-0.7,0-1.5,0-2.2-0.1c-0.3,0-0.6,0-0.9,0c-0.3,0-0.6-0.1-0.9-0.1c-0.2,0-0.3,0-0.5,0c-0.6,0-1.2-0.1-1.8-0.1
			c-0.6,0-1.2-0.1-1.8-0.2c-0.5-0.1-1.1-0.1-1.6-0.2c-0.5-0.1-0.9-0.1-1.4-0.2c-0.5-0.1-1.1-0.1-1.6-0.2c-0.9-0.1-1.9-0.3-2.8-0.4
			c-1-0.2-2.1-0.3-3.1-0.5c-1.5-0.3-2.9-0.6-4.3-0.9c-1.5-0.3-3-0.7-4.5-1.1c-2-0.5-3.9-1.1-5.8-1.9c-0.8-0.3-1.5-0.7-2.1-1.2
			c-0.4-0.3-0.6-0.7-0.6-1.3c0-0.3,0.2-0.6,0.5-0.8c0.4-0.3,0.8-0.4,1.2-0.5c0.5-0.1,1.1-0.2,1.7-0.2c0.4,0,0.7-0.1,1.1-0.1
			c0.3,0,0.6,0,0.9,0c0.2,0,0.5,0,0.7,0c0.3,0,0.7,0,1,0c0.1,0,0.2,0,0.2,0c0.3,0,0.5,0.2,0.6,0.4c0.1,0.3,0.3,0.5,0.4,0.8
			c0.1,0.3,0,0.5-0.3,0.5c-0.8,0-1.5,0-2.3,0c-0.5,0-1,0-1.4,0c-0.4,0-0.9,0.1-1.3,0.1c0,0,0,0-0.1,0c0,0,0,0.1,0,0.1
			c0.1,0.1,0.2,0.2,0.3,0.2c0.6,0.2,1.1,0.4,1.7,0.7c1.9,0.7,3.9,1.3,5.9,1.8c1.6,0.4,3.3,0.8,4.9,1.1c1,0.2,2,0.4,3,0.6
			c0.6,0.1,1.3,0.2,1.9,0.3c0.6,0.1,1.2,0.2,1.7,0.3c0.5,0.1,1.1,0.2,1.6,0.2c0.5,0.1,1,0.1,1.5,0.2c0.6,0.1,1.2,0.1,1.8,0.2
			c0.5,0.1,1,0.1,1.5,0.2c0.5,0.1,1.1,0.1,1.6,0.2c0.3,0,0.6,0,0.9,0.1c0.4,0,0.9,0.1,1.3,0.1c0.2,0,0.4,0,0.6,0c0.4,0,0.9,0,1.3,0
			c0.8,0,1.5,0,2.3,0.1c0.5,0,0.9,0,1.4,0c0.6,0,1.2,0,1.7,0c0.6,0,1.2-0.1,1.8-0.1c0.2,0,0.4,0,0.5,0c0.5,0,1.1-0.1,1.6-0.1
			c0.4,0,0.8,0,1.1-0.1c0.4,0,0.9-0.1,1.3-0.1c0.5,0,1-0.1,1.5-0.2c0.6-0.1,1.1-0.2,1.7-0.2c0.7-0.1,1.3-0.2,2-0.4
			c1-0.2,2.1-0.4,3.1-0.7c1.7-0.4,3.5-0.9,5.2-1.4c1.2-0.4,2.4-0.9,3.6-1.4c0.8-0.4,1.6-0.8,2.3-1.4c0.4-0.3,0.8-0.7,1-1.1
			c0.4-0.6,0.3-1.2-0.2-1.7c-0.3-0.3-0.7-0.5-1-0.7c-0.9-0.6-2-1-3-1.3c-1.4-0.4-2.8-0.8-4.2-1.1c-0.3-0.1-0.6-0.1-0.8-0.2
			c-0.3-0.1-0.5-0.3-0.6-0.6c0-0.1,0-0.2-0.1-0.3c0-0.1,0-0.2,0.1-0.2c0.1,0,0.2-0.1,0.3-0.1C73.4,34,73.4,34,73.5,34z M67.6,56.9
			C67.6,56.9,67.5,56.9,67.6,56.9C67.5,56.9,67.5,56.9,67.6,56.9c-0.4-0.1-0.8-0.2-1.2-0.2c-0.4-0.1-0.8-0.1-1.2-0.2
			c-0.3,0-0.6-0.1-0.9-0.1c-0.3,0-0.7-0.1-1-0.1c-0.3,0-0.7-0.1-1-0.1c-0.4,0-0.8-0.1-1.2-0.1c-0.3,0-0.7-0.1-1-0.1
			c-0.4,0-0.7-0.1-1.1-0.1c-0.3,0-0.5,0-0.8-0.1c-0.3,0-0.7-0.1-1-0.1c-0.3,0-0.6-0.1-0.9-0.1c-0.4,0-0.7-0.1-1.1-0.1
			c-0.3,0-0.7,0-1-0.1c-0.6,0-1.2-0.1-1.8-0.1c-0.6,0-1.1-0.1-1.7-0.1c-0.4,0-0.9,0-1.4,0c-0.3,0-0.6,0-1,0c-0.4,0-0.9-0.1-1.3-0.1
			c-0.6,0-1.2,0-1.9-0.1c-0.6,0-1.1,0-1.7,0c-0.3,0-0.7,0-1,0c-0.9,0-1.8,0-2.6,0c-0.5,0-1,0-1.5,0c-0.3,0-0.6,0-0.9,0
			c-0.4,0-0.8,0.1-1.2,0.1c-0.5,0-1,0.1-1.4,0.1c-0.4,0-0.8,0.1-1.2,0.3c0,0-0.1,0-0.1,0.1c0.1,0.1,0.3,0.2,0.5,0.3
			c0.6,0.2,1.2,0.4,1.8,0.6c1.1,0.3,2.2,0.6,3.3,0.9c0.8,0.2,1.5,0.3,2.3,0.5c0.4,0.1,0.9,0.1,1.3,0.2c0.4,0.1,0.8,0.1,1.2,0.1
			c0.4,0,0.8,0.1,1.1,0.1c0.4,0,0.8,0.1,1.1,0.1c0.3,0,0.6,0,0.8,0.1c0.4,0.1,0.9,0.1,1.3,0.1c0.2,0,0.4,0,0.6,0
			c0.4,0,0.8,0.1,1.3,0.1c0.7,0,1.4,0.1,2.1,0c0.6,0,1.2-0.1,1.9-0.1c0.8,0,1.5,0,2.3-0.1c0.5,0,1.1-0.1,1.6-0.1
			c0.5,0,0.9-0.1,1.4-0.1c0.6-0.1,1.3-0.2,1.9-0.2c0.8-0.1,1.5-0.2,2.3-0.4c1.2-0.2,2.3-0.5,3.5-0.8C67.3,57,67.4,57,67.6,56.9z
			 M65.4,65.2C65.4,65.2,65.4,65.2,65.4,65.2C65.4,65.2,65.4,65.2,65.4,65.2c-0.4-0.1-0.7-0.1-1.1-0.2c-0.4,0-0.9-0.1-1.3-0.1
			c-0.5,0-1-0.1-1.5-0.1c-0.5,0-1-0.1-1.5-0.1c-0.5,0-1-0.1-1.5-0.1c-0.2,0-0.3,0-0.5,0c-0.6,0-1.1-0.1-1.7-0.1
			c-0.5,0-1-0.1-1.6-0.1c-0.3,0-0.6,0-0.9,0c-0.6,0-1.2,0-1.8-0.1c-0.2,0-0.4,0-0.6,0c-0.3,0-0.7-0.1-1-0.1c-0.8,0-1.5,0-2.3,0
			c-1.2,0-2.4,0-3.6,0c-0.4,0-0.9,0-1.4,0.1c-0.4,0-0.7,0.1-1.1,0.1c-0.4,0-0.7,0.1-1.1,0.1c-0.3,0-0.6,0.1-0.8,0.2
			c0,0-0.1,0-0.1,0.1c0,0,0,0,0,0c0.1,0,0.2,0.1,0.3,0.1c0.2,0.1,0.3,0.1,0.5,0.2c1.1,0.4,2.3,0.7,3.5,0.9c0.6,0.1,1.2,0.2,1.8,0.3
			c0.5,0.1,0.9,0.1,1.4,0.1c0.3,0,0.6,0.1,0.8,0.1c0.3,0,0.6,0.1,0.9,0.1c0.2,0,0.5,0,0.7,0.1c0.5,0.1,1,0.1,1.5,0.1
			c0,0,0.1,0,0.1,0c0.3,0,0.6,0.1,0.9,0.1c0.4,0,0.8,0,1.2,0c0.4,0,0.7,0,1.1,0c0.3,0,0.7,0,1-0.1c0.2,0,0.5,0,0.7,0
			c0.5,0,0.9-0.1,1.4-0.1c0.5,0,1-0.1,1.5-0.2c0.7-0.1,1.3-0.2,1.9-0.3c1.3-0.2,2.5-0.5,3.8-0.8C65.3,65.3,65.3,65.2,65.4,65.2z"/>
	</g>
	
		<linearGradient id="SVGID_00000030450515485821586310000008091200599285937297_" gradientUnits="userSpaceOnUse" x1="32.7178" y1="61.7109" x2="34.6496" y2="61.7109">
		<stop  offset="0" style="stop-color:#FFBF1E"/>
		<stop  offset="1" style="stop-color:#FF9138"/>
	</linearGradient>
	<path style="fill:url(#SVGID_00000030450515485821586310000008091200599285937297_);" d="M32.7,61.9c0.1,0.5,0.6,0.9,1.1,0.8
		c0.5-0.1,1-0.5,0.8-1.2c-0.1-0.4-0.6-0.8-1.1-0.8C33,60.8,32.6,61.3,32.7,61.9z"/>
	
		<linearGradient id="SVGID_00000098183444915417969020000017419057809506943165_" gradientUnits="userSpaceOnUse" x1="55.2053" y1="70.9037" x2="58.674" y2="70.9037">
		<stop  offset="0" style="stop-color:#FFBF1E"/>
		<stop  offset="1" style="stop-color:#FF9138"/>
	</linearGradient>
	<path style="fill:url(#SVGID_00000098183444915417969020000017419057809506943165_);" d="M56.7,69.2c-0.1,0.4-0.1,0.9-0.4,1.3
		c-0.3,0.4-0.7,0.5-1.2,0.6c0.4,0.1,0.8,0.2,1.1,0.2c0.5,0.3,0.6,0.8,0.8,1.3c0,0,0,0,0.1,0c0-0.2,0-0.3,0-0.5
		c0-0.5,0.3-0.9,0.7-1.1c0.2-0.1,0.4-0.2,0.7-0.3c-0.1,0-0.2,0-0.2,0c-0.3,0-0.6-0.1-0.9-0.2c-0.4-0.2-0.5-0.5-0.6-0.9
		C56.8,69.4,56.8,69.3,56.7,69.2z"/>
	
		<linearGradient id="SVGID_00000044168036184377921150000003153129762849791921_" gradientUnits="userSpaceOnUse" x1="77.2032" y1="48.0084" x2="78.5485" y2="48.0084">
		<stop  offset="0" style="stop-color:#FFBF1E"/>
		<stop  offset="1" style="stop-color:#FF9138"/>
	</linearGradient>
	<path style="fill:url(#SVGID_00000044168036184377921150000003153129762849791921_);" d="M78.5,47.9c-0.1-0.3-0.4-0.6-0.8-0.6
		c-0.3,0-0.6,0.4-0.6,0.7c0.1,0.4,0.4,0.7,0.8,0.6C78.3,48.6,78.6,48.2,78.5,47.9z"/>
	
		<linearGradient id="SVGID_00000049901160238507111560000005319898188456120196_" gradientUnits="userSpaceOnUse" x1="21.906" y1="32.569" x2="24.038" y2="32.569">
		<stop  offset="0" style="stop-color:#FFBF1E"/>
		<stop  offset="1" style="stop-color:#FF9138"/>
	</linearGradient>
	<path style="fill:url(#SVGID_00000049901160238507111560000005319898188456120196_);" d="M23.1,33.6c0.5-0.1,1-0.7,0.9-1.2
		c-0.1-0.5-0.6-1-1.2-0.9c-0.6,0.1-1,0.6-0.9,1.2C22,33.3,22.6,33.7,23.1,33.6z"/>
</g>
</svg>
